<svg width="402" height="282" viewBox="0 0 402 282" xmlns="http://www.w3.org/2000/svg"><title>Group</title><g fill="#979797" fill-rule="evenodd"><path d="M1.287 281.41L385.582 12.403c2.91-2.036 2.91-2.036 6.398-4.48l6.4-4.478 2.907-2.035.41-.287-.574-.82-.41.287c-.58.408-.58.408-2.908 2.036l-6.398 4.48-6.398 4.477L.712 280.59l-.41.287.574.82.41-.287z"/><path d="M.752 1.354l384.22 269.114 6.398 4.48 6.396 4.48 2.908 2.037.41.287.573-.82-.41-.286-2.907-2.036-6.397-4.48-6.396-4.48L1.327.534.916.248l-.574.82.41.286z"/></g></svg>